<svg width="81" height="81" viewBox="0 0 81 81" fill="none" xmlns="http://www.w3.org/2000/svg">
<path opacity="0.5" d="M40.5 11.0742C24.2525 11.0742 11.0742 24.2525 11.0742 40.5C11.0742 56.7475 24.2525 69.9258 40.5 69.9258C56.7475 69.9258 69.9258 56.7475 69.9258 40.5C69.9258 24.2525 56.7475 11.0742 40.5 11.0742ZM55.6875 42.3984C55.6875 42.7465 55.4027 43.0312 55.0547 43.0312H43.0312V55.0547C43.0312 55.4027 42.7465 55.6875 42.3984 55.6875H38.6016C38.2535 55.6875 37.9688 55.4027 37.9688 55.0547V43.0312H25.9453C25.5973 43.0312 25.3125 42.7465 25.3125 42.3984V38.6016C25.3125 38.2535 25.5973 37.9688 25.9453 37.9688H37.9688V25.9453C37.9688 25.5973 38.2535 25.3125 38.6016 25.3125H42.3984C42.7465 25.3125 43.0312 25.5973 43.0312 25.9453V37.9688H55.0547C55.4027 37.9688 55.6875 38.2535 55.6875 38.6016V42.3984Z" fill="white" fill-opacity="0.15"/>
<path d="M55.0547 37.9688H43.0312V25.9453C43.0312 25.5973 42.7465 25.3125 42.3984 25.3125H38.6016C38.2535 25.3125 37.9688 25.5973 37.9688 25.9453V37.9688H25.9453C25.5973 37.9688 25.3125 38.2535 25.3125 38.6016V42.3984C25.3125 42.7465 25.5973 43.0312 25.9453 43.0312H37.9688V55.0547C37.9688 55.4027 38.2535 55.6875 38.6016 55.6875H42.3984C42.7465 55.6875 43.0312 55.4027 43.0312 55.0547V43.0312H55.0547C55.4027 43.0312 55.6875 42.7465 55.6875 42.3984V38.6016C55.6875 38.2535 55.4027 37.9688 55.0547 37.9688Z" fill="#B0A8A8" fill-opacity="0.5"/>
<circle cx="40.5" cy="40.5" r="40" stroke="white" stroke-opacity="0.2"/>
</svg>
