<svg width="264.1625px" height="93.60000305175781px" xmlns="http://www.w3.org/2000/svg" viewBox="117.91874999999999 28.199998474121095 264.1625 93.60000305175781" style="background: rgba(0, 0, 0, 0);" preserveAspectRatio="xMidYMid"><defs><linearGradient id="editing-gradient-gradient" x1="0" x2="1" y1="0.5" y2="0.5" gradientUnits="objectBoundingBox"><stop offset="0" stop-color="#f0f"></stop><stop offset="1" stop-color="#0ff"></stop></linearGradient></defs><g><g transform="translate(160.57867622375488, 94.7699966430664)"><path d="M7.71 0L2.58 0L13.17-30.19L18.05-30.19L28.55 0L23.46 0L21.29-6.28L9.93-6.28L7.71 0ZM15.63-22.64L11.07-9.60L20.10-9.60L15.63-22.64ZM39.99-30.23L39.99 0L34.99 0L34.99-30.23L39.99-30.23ZM49.14 5.82L52.01 2.99L52.01 2.99Q52.42 3.69 53.05 4.14L53.05 4.14L53.05 4.14Q53.69 4.59 54.37 4.84L54.37 4.84L54.37 4.84Q55.04 5.09 55.72 5.19L55.72 5.19L55.72 5.19Q56.40 5.29 56.93 5.29L56.93 5.29L56.93 5.29Q59.47 5.29 60.91 3.81L60.91 3.81L60.91 3.81Q62.34 2.34 62.34-1.23L62.34-1.23L62.34-2.30L62.34-2.38L62.38-2.58L62.38-2.58Q62.38-2.63 62.36-2.67L62.36-2.67L62.36-2.67Q62.34-2.71 62.34-2.75L62.34-2.75L62.34-2.75Q62.22-2.21 61.63-1.68L61.63-1.68L61.63-1.68Q61.03-1.15 60.13-0.72L60.13-0.72L60.13-0.72Q59.23-0.29 58.08-0.04L58.08-0.04L58.08-0.04Q56.93 0.21 55.70 0.21L55.70 0.21L55.70 0.21Q53.40 0.21 51.68-0.80L51.68-0.80L51.68-0.80Q49.96-1.80 48.81-3.49L48.81-3.49L48.81-3.49Q47.66-5.17 47.13-7.34L47.13-7.34L47.13-7.34Q46.59-9.52 46.59-11.89L46.59-11.89L46.59-11.89Q46.59-15.09 47.48-17.27L47.48-17.27L47.48-17.27Q48.36-19.44 49.73-20.82L49.73-20.82L49.73-20.82Q51.11-22.19 52.81-22.76L52.81-22.76L52.81-22.76Q54.51-23.34 56.15-23.34L56.15-23.34L56.15-23.34Q58.16-23.34 59.82-22.64L59.82-22.64L59.82-22.64Q61.48-21.94 62.34-20.79L62.34-20.79L62.88-23.13L67.31-23.13L67.27 0L67.27 0Q67.10 2.50 66.26 4.27L66.26 4.27L66.26 4.27Q65.42 6.03 64.11 7.18L64.11 7.18L64.11 7.18Q62.79 8.33 61.07 8.82L61.07 8.82L61.07 8.82Q59.35 9.31 57.38 9.31L57.38 9.31L57.38 9.31Q55.08 9.31 52.85 8.51L52.85 8.51L52.85 8.51Q50.61 7.71 49.14 5.82L49.14 5.82ZM62.67-11.73L62.67-11.73L62.67-11.73Q62.67-13.37 62.26-14.77L62.26-14.77L62.26-14.77Q61.85-16.16 61.15-17.23L61.15-17.23L61.15-17.23Q60.46-18.29 59.43-18.91L59.43-18.91L59.43-18.91Q58.41-19.52 57.22-19.52L57.22-19.52L57.22-19.52Q55.99-19.52 54.98-18.89L54.98-18.89L54.98-18.89Q53.98-18.25 53.28-17.19L53.28-17.19L53.28-17.19Q52.58-16.12 52.21-14.68L52.21-14.68L52.21-14.68Q51.84-13.25 51.84-11.65L51.84-11.65L51.84-11.65Q51.84-10.01 52.23-8.55L52.23-8.55L52.23-8.55Q52.62-7.10 53.34-6.03L53.34-6.03L53.34-6.03Q54.06-4.96 55.06-4.33L55.06-4.33L55.06-4.33Q56.07-3.69 57.30-3.69L57.30-3.69L57.30-3.69Q58.57-3.69 59.55-4.33L59.55-4.33L59.55-4.33Q60.54-4.96 61.22-6.05L61.22-6.05L61.22-6.05Q61.89-7.14 62.28-8.61L62.28-8.61L62.28-8.61Q62.67-10.09 62.67-11.73ZM88.31-23.30L88.31-18.13L88.31-18.13Q87.16-18.46 85.52-18.50L85.52-18.50L85.52-18.50Q84.04-18.50 82.58-18.15L82.58-18.15L82.58-18.15Q81.13-17.80 80.27-16.98L80.27-16.98L80.27-8.20L80.27-8.12L80.27 0L75.30 0L75.30-23.13L79.73-23.13L80.27-20.75L80.27-20.75Q80.88-21.37 81.56-21.86L81.56-21.86L81.56-21.86Q82.24-22.35 83.14-22.66L83.14-22.66L83.14-22.66Q84.04-22.97 85.27-23.13L85.27-23.13L85.27-23.13Q86.50-23.30 88.31-23.30L88.31-23.30ZM110.37-12.51L110.37-7.18L110.37-6.85L110.37-6.85Q110.37-6.52 110.41-5.89L110.41-5.89L110.41-5.89Q110.46-5.25 110.58-4.59L110.58-4.59L110.58-4.59Q110.70-3.94 110.97-3.40L110.97-3.40L110.97-3.40Q111.23-2.87 111.69-2.71L111.69-2.71L110.37 0.04L110.37 0.04Q109.84 0.04 109.25-0.21L109.25-0.21L109.25-0.21Q108.65-0.45 108.10-0.90L108.10-0.90L108.10-0.90Q107.54-1.35 107.15-1.91L107.15-1.91L107.15-1.91Q106.76-2.46 106.56-3.12L106.56-3.12L106.56-3.12Q106.27-2.42 105.55-1.83L105.55-1.83L105.55-1.83Q104.84-1.23 103.93-0.76L103.93-0.76L103.93-0.76Q103.03-0.29 101.99-0.04L101.99-0.04L101.99-0.04Q100.94 0.21 100.04 0.21L100.04 0.21L100.04 0.21Q98.64 0.21 97.35-0.16L97.35-0.16L97.35-0.16Q96.06-0.53 95.07-1.35L95.07-1.35L95.07-1.35Q94.09-2.17 93.54-3.53L93.54-3.53L93.54-3.53Q92.98-4.88 92.98-6.85L92.98-6.85L92.98-6.85Q92.98-8.74 93.78-10.11L93.78-10.11L93.78-10.11Q94.58-11.48 95.83-12.37L95.83-12.37L95.83-12.37Q97.08-13.25 98.68-13.68L98.68-13.68L98.68-13.68Q100.28-14.11 101.92-14.11L101.92-14.11L105.41-14.11L105.41-14.11Q105.41-16.12 105.21-17.31L105.21-17.31L105.21-17.31Q105-18.50 104.51-19.05L104.51-19.05L104.51-19.05Q104.02-19.61 103.30-19.75L103.30-19.75L103.30-19.75Q102.58-19.89 101.60-19.89L101.60-19.89L101.60-19.89Q100.69-19.89 99.89-19.67L99.89-19.67L99.89-19.67Q99.09-19.44 98.42-19.13L98.42-19.13L98.42-19.13Q97.74-18.83 97.23-18.46L97.23-18.46L97.23-18.46Q96.71-18.09 96.47-17.88L96.47-17.88L94.62-20.71L94.62-20.71Q95.03-21.16 95.85-21.64L95.85-21.64L95.85-21.64Q96.67-22.11 97.74-22.48L97.74-22.48L97.74-22.48Q98.81-22.85 100.06-23.07L100.06-23.07L100.06-23.07Q101.31-23.30 102.66-23.30L102.66-23.30L102.66-23.30Q103.89-23.30 105.06-23.05L105.06-23.05L105.06-23.05Q106.23-22.80 107.19-22.23L107.19-22.23L107.19-22.23Q108.16-21.66 108.88-20.69L108.88-20.69L108.88-20.69Q109.59-19.73 109.88-18.29L109.88-18.29L109.88-18.29Q110.17-16.86 110.27-15.40L110.27-15.40L110.27-15.40Q110.37-13.95 110.37-12.51L110.37-12.51ZM105.45-5.54L105.45-11.20L102.83-11.20L102.83-11.20Q102.01-11.20 101.10-11.03L101.10-11.03L101.10-11.03Q100.20-10.87 99.42-10.42L99.42-10.42L99.42-10.42Q98.64-9.97 98.13-9.13L98.13-9.13L98.13-9.13Q97.62-8.29 97.62-6.97L97.62-6.97L97.62-6.97Q97.62-4.92 98.54-4.02L98.54-4.02L98.54-4.02Q99.46-3.12 101.23-3.12L101.23-3.12L101.23-3.12Q102.46-3.12 103.58-3.77L103.58-3.77L103.58-3.77Q104.71-4.43 105.45-5.54L105.45-5.54ZM148.76-13.00L148.76-0.78L148.76 0L143.84 0L143.84-12.59L143.84-12.59Q143.84-13.99 143.82-15.24L143.82-15.24L143.82-15.24Q143.80-16.49 143.55-17.47L143.55-17.47L143.55-17.47Q143.31-18.46 142.75-19.01L142.75-19.01L142.75-19.01Q142.20-19.56 141.05-19.56L141.05-19.56L141.05-19.56Q140.85-19.56 140.33-19.50L140.33-19.50L140.33-19.50Q139.82-19.44 139.13-19.26L139.13-19.26L139.13-19.26Q138.43-19.07 137.59-18.66L137.59-18.66L137.59-18.66Q136.75-18.25 135.93-17.60L135.93-17.60L135.93-17.60Q135.93-16.00 135.95-15.05L135.95-15.05L135.95-15.05Q135.97-14.11 135.97-13.00L135.97-13.00L135.97 0L131.00 0L131.00-12.59L131.00-12.59Q131.00-13.99 131.00-15.24L131.00-15.24L131.00-15.24Q131.00-16.49 130.76-17.47L130.76-17.47L130.76-17.47Q130.51-18.46 129.94-19.01L129.94-19.01L129.94-19.01Q129.36-19.56 128.26-19.56L128.26-19.56L128.26-19.56Q127.89-19.56 127.23-19.46L127.23-19.46L127.23-19.46Q126.57-19.36 125.86-19.11L125.86-19.11L125.86-19.11Q125.14-18.87 124.42-18.50L124.42-18.50L124.42-18.50Q123.70-18.13 123.21-17.64L123.21-17.64L123.21 0L118.21 0L118.21-23.13L122.68-23.13L123.21-20.75L123.21-20.75Q124.24-21.70 125.86-22.50L125.86-22.50L125.86-22.50Q127.48-23.30 129.24-23.30L129.24-23.30L129.24-23.30Q131.21-23.30 132.52-22.44L132.52-22.44L132.52-22.44Q133.83-21.57 135.15-19.89L135.15-19.89L135.15-19.89Q135.84-20.67 136.71-21.33L136.71-21.33L136.71-21.33Q137.57-21.98 138.49-22.44L138.49-22.44L138.49-22.44Q139.41-22.89 140.31-23.13L140.31-23.13L140.31-23.13Q141.22-23.38 142.04-23.38L142.04-23.38L142.04-23.38Q143.43-23.38 144.66-22.83L144.66-22.83L144.66-22.83Q145.89-22.27 146.82-21.25L146.82-21.25L146.82-21.25Q147.74-20.22 148.25-18.81L148.25-18.81L148.25-18.81Q148.76-17.39 148.76-15.75L148.76-15.75L148.76-13.00ZM165.50-23.38L165.50-23.38L165.50-23.38Q168.29-23.38 170.42-22.25L170.42-22.25L170.42-22.25Q172.55-21.12 173.93-19.26L173.93-19.26L173.93-19.26Q175.30-17.39 175.90-14.95L175.90-14.95L175.90-14.95Q176.49-12.51 176.12-9.88L176.12-9.88L160.04-9.88L160.04-9.88Q160.04-8.57 160.54-7.46L160.54-7.46L160.54-7.46Q161.03-6.36 161.87-5.56L161.87-5.56L161.87-5.56Q162.71-4.76 163.88-4.31L163.88-4.31L163.88-4.31Q165.05-3.86 166.40-3.86L166.40-3.86L166.40-3.86Q166.85-3.86 167.53-3.96L167.53-3.96L167.53-3.96Q168.21-4.06 168.96-4.33L168.96-4.33L168.96-4.33Q169.72-4.59 170.48-5.00L170.48-5.00L170.48-5.00Q171.24-5.41 171.81-5.99L171.81-5.99L173.62-3.24L173.62-3.24Q172.27-1.56 170.46-0.70L170.46-0.70L170.46-0.70Q168.66 0.16 165.87 0.16L165.87 0.16L165.87 0.16Q163.61 0.16 161.64-0.76L161.64-0.76L161.64-0.76Q159.67-1.68 158.28-3.28L158.28-3.28L158.28-3.28Q156.88-4.88 156.06-7.01L156.06-7.01L156.06-7.01Q155.24-9.15 155.24-11.61L155.24-11.61L155.24-11.61Q155.24-14.03 156.06-16.18L156.06-16.18L156.06-16.18Q156.88-18.33 158.26-19.93L158.26-19.93L158.26-19.93Q159.63-21.53 161.52-22.46L161.52-22.46L161.52-22.46Q163.41-23.38 165.50-23.38ZM160.21-13.49L171.53-13.49L171.53-13.49Q171.53-14.60 171.12-15.67L171.12-15.67L171.12-15.67Q170.71-16.73 169.99-17.60L169.99-17.60L169.99-17.60Q169.27-18.46 168.25-18.97L168.25-18.97L168.25-18.97Q167.22-19.48 166.03-19.52L166.03-19.52L166.03-19.52Q164.76-19.52 163.69-19.03L163.69-19.03L163.69-19.03Q162.63-18.54 161.85-17.72L161.85-17.72L161.85-17.72Q161.07-16.90 160.64-15.77L160.64-15.77L160.64-15.77Q160.21-14.64 160.21-13.49L160.21-13.49Z" fill="url(#editing-gradient-gradient)"></path></g></g><style>text {
  font-size: 64px;
  font-family: Arial Black;
  dominant-baseline: central;
  text-anchor: middle;
}</style></svg>